<svg viewBox="0 0 980.000000 980.000000" xmlns="http://www.w3.org/2000/svg">
  <g transform="translate(0.000000,980.000000) scale(0.100000,-0.100000)" fill="#ffffff" stroke="none">
    <path
      d="M5045 9771 c898 -218 1747 -632 2385 -1165 773 -644 1259 -1451 1455 -2415 55 -270 83 -528 91 -851 19 -690 -92 -1287 -340 -1830 -464 -1015 -1400 -1742 -2546 -1975 -418 -85 -910 -98 -1340 -35 -694 102 -1388 495 -1879 1065 -576 668 -829 1517 -706 2362 86 586 351 1130 751 1538 159 162 393 354 500 408 83 42 195 127 274 206 238 240 360 531 360 861 0 252 -66 472 -206 682 -180 271 -466 461 -791 524 -118 23 -339 23 -448 0 -174 -38 -352 -115 -481 -209 -401 -291 -789 -659 -1065 -1008 -821 -1035 -1186 -2347 -1019 -3657 209 -1631 1230 -3051 2715 -3777 1451 -709 3175 -652 4576 151 957 548 1709 1411 2117 2429 270 674 388 1410 342 2130 -67 1047 -454 2021 -1124 2830 -128 154 -417 448 -569 578 -847 727 -1911 1145 -3007 1182 l-165 5 120 -29z" />
  </g>
</svg>